<?xml version="1.0" encoding="UTF-8"?>
<svg width="49px" height="47px" viewBox="0 0 49 47" version="1.1" xmlns="http://www.w3.org/2000/svg" xmlns:xlink="http://www.w3.org/1999/xlink">
    <title>speed</title>
    <defs>
        <linearGradient x1="0%" y1="2.59695291%" x2="114.111416%" y2="44.7797282%" id="linearGradient-1">
            <stop stop-color="#EA3294" offset="0%"></stop>
            <stop stop-color="#2F0CE2" offset="100%"></stop>
        </linearGradient>
        <linearGradient x1="31.3271605%" y1="0%" x2="73.9428434%" y2="44.4937381%" id="linearGradient-2">
            <stop stop-color="#EA3294" offset="0%"></stop>
            <stop stop-color="#2F0CE2" offset="100%"></stop>
        </linearGradient>
        <linearGradient x1="0%" y1="31.3271605%" x2="114.111416%" y2="47.9436491%" id="linearGradient-3">
            <stop stop-color="#EA3294" offset="0%"></stop>
            <stop stop-color="#2F0CE2" offset="100%"></stop>
        </linearGradient>
        <linearGradient x1="0%" y1="0%" x2="114.111416%" y2="44.4937381%" id="linearGradient-4">
            <stop stop-color="#EA3294" offset="0%"></stop>
            <stop stop-color="#2F0CE2" offset="100%"></stop>
        </linearGradient>
    </defs>
    <g id="Home-v3" stroke="none" stroke-width="1" fill="currentColor" fill-rule="evenodd">
        <g id="Desktop:-Home-OCT-2020" transform="translate(-1194.000000, -533.000000)" fill-rule="nonzero">
            <g id="speed" transform="translate(1194.000000, 533.000000)">
                <path d="M24.3073324,37 C24.0522206,37 23.7971088,36.9049037 23.6017888,36.7166517 L10.7923858,24.2435045 C10.4176904,23.878645 10.4017459,23.2944817 10.7525246,22.9102149 L20.3530994,12.4379724 C27.0637358,4.79339062 37.9916892,-0.153560103 47.5205138,0.00363997872 C48.0526611,0.0152844292 48.4811692,0.432543906 48.4931276,0.950721954 C48.7143573,10.2352305 43.5762461,20.8704953 35.7056482,27.418558 L24.9690287,36.7535258 C24.7816809,36.9184888 24.5425136,37 24.3073324,37 Z M12.8671623,23.5196078 L24.3452006,34.6963395 L34.3962072,25.9591202 C41.5831851,19.9777541 46.3565662,10.4448306 46.5040527,1.94244099 C37.7724525,2.08411514 27.98453,6.73219163 21.8538743,13.7149805 L12.8671623,23.5196078 Z" id="Shape" fill="url(#linearGradient-1)"></path>
                <path d="M27.9859506,45 C27.8855146,45 27.7829861,44.9868146 27.6867349,44.9585601 C27.3100996,44.8455421 27.0004217,44.5856007 26.9460188,44.2314776 L25.51062,35.2145249 C25.4290157,34.700293 25.8265751,34.2237338 26.3978053,34.1483884 C26.9690354,34.0673922 27.4984172,34.4309334 27.582114,34.947049 L28.7036501,41.9918376 C32.3695666,38.0456258 34.4075819,33.0426957 34.4075819,27.9418167 C34.4075819,27.4219339 34.8762835,27 35.4537909,27 C36.0312983,27 36.5,27.4219339 36.5,27.9418167 C36.5,34.1822938 33.6919749,40.2909167 28.7957165,44.696735 C28.5864747,44.8850984 28.2809816,45 27.9859506,45 L27.9859506,45 Z" id="Path" fill="url(#linearGradient-2)"></path>
                <path d="M13.4367939,23 C13.3935646,23 13.3484558,22.9979076 13.3033469,22.9895378 L4.30601189,21.5541183 C3.95265927,21.4976222 3.65757224,21.2235115 3.54667966,20.8447784 C3.43578708,20.4681377 3.52600477,20.0517405 3.77974203,19.7734449 C8.23987908,14.8080654 14.3333322,12 20.5602324,12 C21.0789841,12 21.5,12.4687084 21.5,13.0462241 C21.5,13.6237398 21.0789841,14.0924482 20.5602324,14.0924482 C15.4460171,14.0924482 10.4276581,16.1493247 6.53138158,19.7943694 L13.5702409,20.9180141 C14.0833541,21.001712 14.4404657,21.5290089 14.3671639,22.1023397 C14.2976211,22.6233593 13.8954005,23 13.4367939,23 Z" id="Path" fill="url(#linearGradient-3)"></path>
                <path d="M35.5,18 C34.2172303,18 32.9364619,17.5118291 31.9618771,16.5374881 C30.0127076,14.5868054 30.0127076,11.4136948 31.9618771,9.46301205 C33.9130478,7.51232932 37.0869522,7.51232932 39.0381229,9.46301205 C40.9872924,11.4136948 40.9872924,14.5868054 39.0381229,16.5374881 C38.0615369,17.5138298 36.7807685,18 35.5,18 Z M35.5,10.0012004 C34.7315389,10.0012004 33.9610766,10.2933027 33.376726,10.8775071 C32.2080248,12.0479168 32.2080248,13.9525834 33.376726,15.122993 C34.5474285,16.291402 36.4525715,16.2894013 37.623274,15.122993 C38.7919752,13.9525834 38.7919752,12.0479168 37.623274,10.8775071 C37.0369222,10.2953034 36.2684611,10.0012004 35.5,10.0012004 Z" id="Shape" fill="url(#linearGradient-4)"></path>
                <path d="M1.50056032,47 C1.23852643,47 0.984493583,46.8979761 0.792468751,46.7079315 C0.532435124,46.4478706 0.436422708,46.065781 0.542436417,45.7136985 C0.870478839,44.6194421 3.80885882,34.9491756 5.94913559,32.808674 C8.35944729,30.398109 12.2819545,30.3961085 14.6922662,32.808674 C17.1025779,35.2192389 17.1025779,39.1421584 14.6922662,41.5527233 C12.5519895,43.693225 2.88273906,46.6319137 1.78859757,46.9599906 C1.69258515,46.9859967 1.59657273,47 1.50056032,47 Z M10.321701,32.9987185 C9.2495624,32.9987185 8.17942401,33.4068142 7.36331847,34.221005 C6.20916922,35.377276 4.2889209,40.5404861 3.02075691,44.4794092 C6.95726596,43.211112 12.1219338,41.2906619 13.2760831,40.1363914 C14.9062939,38.5060093 14.9062939,35.8513871 13.2760831,34.221005 C12.4619778,33.4068142 11.3918394,32.9987185 10.321701,32.9987185 Z" id="Shape" fill="url(#linearGradient-4)"></path>
            </g>
        </g>
    </g>
</svg>
