<?xml version="1.0" encoding="UTF-8"?>
<svg width="48px" height="48px" viewBox="0 0 48 48" version="1.1" xmlns="http://www.w3.org/2000/svg" xmlns:xlink="http://www.w3.org/1999/xlink">
    <title>growth</title>
    <defs>
        <linearGradient x1="0%" y1="30.46875%" x2="114.111416%" y2="47.8491165%" id="linearGradient-1">
            <stop stop-color="#EA3294" offset="0%"></stop>
            <stop stop-color="#2F0CE2" offset="100%"></stop>
        </linearGradient>
        <linearGradient x1="0%" y1="29.8929209%" x2="114.111416%" y2="47.7857031%" id="linearGradient-2">
            <stop stop-color="#EA3294" offset="0%"></stop>
            <stop stop-color="#2F0CE2" offset="100%"></stop>
        </linearGradient>
    </defs>
    <g id="Home-v3" stroke="none" stroke-width="1" fill="currentColor" fill-rule="evenodd">
        <g id="Desktop:-Home-OCT-2020" transform="translate(-843.000000, -533.000000)" fill-rule="nonzero">
            <g id="growth" transform="translate(843.000000, 533.000000)">
                <path d="M47.296875,43.5637829 L44.4009375,43.5637829 L44.4009375,32.5964945 C44.4009375,32.2082669 44.086125,31.8935233 43.6978125,31.8935233 C43.3095,31.8935233 42.9946875,32.2082669 42.9946875,32.5964945 L42.9946875,43.5637829 L36.825,43.5637829 L36.825,19.4059425 L42.9946875,19.4059425 L42.9946875,29.3159621 C42.9946875,29.7041897 43.3095,30.0189334 43.6978125,30.0189334 C44.086125,30.0189334 44.4009375,29.7041897 44.4009375,29.3159621 L44.4009375,18.7029712 C44.4009375,18.3147436 44.086125,18 43.6978125,18 L36.121875,18 C35.7335625,18 35.41875,18.3147436 35.41875,18.7029712 L35.41875,43.5637829 L33.794625,43.5637829 L33.794625,22.490299 C33.794625,22.1020714 33.4798125,21.7873278 33.0915,21.7873278 L25.5152812,21.7873278 C25.1269687,21.7873278 24.8121562,22.1020714 24.8121562,22.490299 L24.8121562,43.5637829 L23.1879375,43.5637829 L23.1879375,28.1712438 C23.1879375,27.7830162 22.873125,27.4682726 22.4848125,27.4682726 L14.9085937,27.4682726 C14.5202812,27.4682726 14.2054687,27.7830162 14.2054687,28.1712438 L14.2054687,43.5637829 L12.58125,43.5637829 L12.58125,32.7159996 C12.58125,32.327772 12.2664375,32.0130284 11.878125,32.0130284 L4.3018125,32.0130284 C3.9135,32.0130284 3.5986875,32.327772 3.5986875,32.7159996 L3.5986875,43.5637829 L0.703125,43.5637829 C0.3148125,43.5637829 0,43.8785266 0,44.2667541 L0,47.2970288 C0,47.6852564 0.3148125,48 0.703125,48 L8.296875,48 C8.6851875,48 9,47.6852564 9,47.2970288 C9,46.9088012 8.6851875,46.5940575 8.296875,46.5940575 L1.40625,46.5940575 L1.40625,44.9697254 L46.59375,44.9697254 L46.59375,46.5940575 L11.578125,46.5940575 C11.1898125,46.5940575 10.875,46.9088012 10.875,47.2970288 C10.875,47.6852564 11.1898125,48 11.578125,48 L47.296875,48 C47.6851875,48 48,47.6852564 48,47.2970288 L48,44.2667541 C48,43.8785266 47.6851875,43.5637829 47.296875,43.5637829 Z M26.2184062,23.1932702 L32.388375,23.1932702 L32.388375,43.5637829 L26.2184062,43.5637829 L26.2184062,23.1932702 Z M15.611625,28.874215 L21.7815937,28.874215 L21.7815937,43.5637829 L15.611625,43.5637829 L15.611625,28.874215 Z M5.0049375,33.4189709 L11.1749062,33.4189709 L11.1749062,43.5637829 L5.0049375,43.5637829 L5.0049375,33.4189709 Z" id="Shape" fill="url(#linearGradient-1)"></path>
                <path d="M3.70490338,26 L14.4325929,26 C15.0549756,26 15.6527336,25.7342032 16.0725741,25.2709357 L24.8105564,15.6323099 L30.7628545,15.6323099 C31.357135,15.6323099 31.9157004,15.398538 32.3355409,14.9740424 L39.5525296,7.67703216 L39.5525296,9.92855994 C39.5525296,10.3221711 39.8681384,10.6412792 40.257433,10.6412792 L43.2950966,10.6412792 C43.6843913,10.6412792 44,10.3221711 44,9.92855994 L44,2.24839181 C44,1.00864035 43.0024207,0 41.7762648,0 L34.1811659,0 C33.7918713,0 33.4762625,0.319108187 33.4762625,0.712719298 L33.4762625,3.78501462 C33.4762625,4.17862573 33.7918713,4.49773392 34.1811659,4.49773392 L36.4071568,4.49773392 L29.8421567,11.1355263 L23.8322445,11.1355263 C23.2105197,11.1355263 22.6130436,11.4013231 22.1932971,11.8644956 L13.454281,21.5032164 L11.5105334,21.5032164 C11.1212388,21.5032164 10.8056301,21.8223246 10.8056301,22.2159357 C10.8056301,22.6095468 11.1212388,22.928655 11.5105334,22.928655 L13.7643445,22.928655 C13.9619054,22.928655 14.1504436,22.8448392 14.2839053,22.6975439 L23.2325127,12.827712 C23.3860876,12.6582749 23.6046077,12.5610599 23.8321505,12.5610599 L30.1339867,12.5610599 C30.320927,12.5610599 30.5002545,12.4859868 30.6324003,12.3522807 L38.6072072,4.28904971 C38.8088096,4.08521199 38.8691493,3.77864766 38.7600303,3.51237573 C38.6509112,3.24600877 38.3938565,3.07239035 38.1087935,3.07239035 L34.8859753,3.07239035 L34.8859753,1.4254386 L41.7761708,1.4254386 C42.2249593,1.4254386 42.5900993,1.79462719 42.5900993,2.24839181 L42.5900993,9.21593567 L40.9622424,9.21593567 L40.9622424,5.95643275 C40.9622424,5.66820906 40.7905279,5.40830409 40.527082,5.29797515 C40.2638241,5.18783626 39.9604337,5.24865497 39.7589253,5.45249269 L31.3387135,13.9660673 C31.1851386,14.121345 30.9805286,14.2068713 30.7628545,14.2068713 L24.5004929,14.2068713 C24.302838,14.2068713 24.1143938,14.2906871 23.9808381,14.4379825 L15.0331706,24.3078143 C14.8795956,24.4773465 14.6606996,24.5745614 14.4325929,24.5745614 L4.40980675,24.5745614 L4.40980675,22.928655 L8.22098434,22.928655 C8.61027898,22.928655 8.92588772,22.6095468 8.92588772,22.2159357 C8.92588772,21.8223246 8.61027898,21.5032164 8.22098434,21.5032164 L3.70490338,21.5032164 C3.31560874,21.5032164 3,21.8223246 3,22.2159357 L3,25.2872807 C3,25.6808918 3.31560874,26 3.70490338,26 L3.70490338,26 Z" id="Path" fill="url(#linearGradient-2)"></path>
            </g>
        </g>
    </g>
</svg>
