<?xml version="1.0" encoding="UTF-8"?>
<svg width="54px" height="54px" viewBox="0 0 54 54" version="1.1" xmlns="http://www.w3.org/2000/svg" xmlns:xlink="http://www.w3.org/1999/xlink">
    <title>team</title>
    <defs>
        <linearGradient x1="0%" y1="0%" x2="100%" y2="199.609375%" id="linearGradient-1">
            <stop stop-color="#EA3294" offset="0%"></stop>
            <stop stop-color="#2F0CE2" offset="100%"></stop>
        </linearGradient>
        <linearGradient x1="0%" y1="16.9921875%" x2="100%" y2="148.765564%" id="linearGradient-2">
            <stop stop-color="#EA3294" offset="0%"></stop>
            <stop stop-color="#2F0CE2" offset="100%"></stop>
        </linearGradient>
        <linearGradient x1="0%" y1="44.4444444%" x2="100%" y2="66.6232639%" id="linearGradient-3">
            <stop stop-color="#EA3294" offset="0%"></stop>
            <stop stop-color="#2F0CE2" offset="100%"></stop>
        </linearGradient>
        <linearGradient x1="17.2335601%" y1="0%" x2="82.7664399%" y2="199.609375%" id="linearGradient-4">
            <stop stop-color="#EA3294" offset="0%"></stop>
            <stop stop-color="#2F0CE2" offset="100%"></stop>
        </linearGradient>
        <linearGradient x1="31.4744802%" y1="0%" x2="68.5255198%" y2="199.609375%" id="linearGradient-5">
            <stop stop-color="#EA3294" offset="0%"></stop>
            <stop stop-color="#2F0CE2" offset="100%"></stop>
        </linearGradient>
    </defs>
    <g id="Home-v3" stroke="none" stroke-width="1" fill="currentColor" fill-rule="evenodd">
        <g id="Desktop:-Home-OCT-2020" transform="translate(-490.000000, -526.000000)" fill-rule="nonzero">
            <g id="team" transform="translate(490.000000, 526.000000)">
                <path d="M26.5,0 C23.4623958,0 21,2.46239583 21,5.5 C21,8.53760417 23.4623958,11 26.5,11 C29.5363438,10.9970208 31.9970208,8.53634375 32,5.5 C32,2.46239583 29.5376042,0 26.5,0 Z M26.5,9.16666667 C24.4749687,9.16666667 22.8333333,7.52503125 22.8333333,5.5 C22.8333333,3.47496875 24.4749687,1.83333333 26.5,1.83333333 C28.5250312,1.83333333 30.1666667,3.47496875 30.1666667,5.5 C30.1666667,7.52503125 28.5250312,9.16666667 26.5,9.16666667 Z" id="Shape" fill="url(#linearGradient-1)"></path>
                <path d="M30.5555556,12 L30.3457778,12 L30.1582222,12.0975 C28.1692222,13.1320446 25.8307778,13.1320446 23.8417778,12.0975 L23.6542222,12 L23.4444444,12 C20.9911111,12.0030179 19.0028889,14.08 19,16.6428571 L19,22.2142857 C19,23.7528125 20.1938889,25 21.6666667,25 L32.3333333,25 C33.8061111,25 35,23.7528125 35,22.2142857 L35,16.6428571 C34.9971111,14.08 33.0088889,12.0030179 30.5555556,12 Z M33.2222222,22.2142857 C33.2222222,22.7270893 32.8242222,23.1428571 32.3333333,23.1428571 L21.6666667,23.1428571 C21.1757778,23.1428571 20.7777778,22.7270893 20.7777778,22.2142857 L20.7777778,16.6428571 C20.778,15.1812857 21.8594444,13.9683393 23.2551111,13.8645714 C25.6301111,15.016 28.37,15.016 30.7448889,13.8645714 C32.1404444,13.9683393 33.222,15.1812857 33.2222222,16.6428571 L33.2222222,22.2142857 Z" id="Shape" fill="url(#linearGradient-2)"></path>
                <path d="M46.5,29 C43.4623958,29 41,31.4623958 41,34.5 C41,37.5376042 43.4623958,40 46.5,40 C49.5376042,40 52,37.5376042 52,34.5 C51.9970208,31.4636562 49.5363438,29.0029792 46.5,29 Z M46.5,38.1666667 C44.4749688,38.1666667 42.8333333,36.5250312 42.8333333,34.5 C42.8333333,32.4749688 44.4749688,30.8333333 46.5,30.8333333 C48.5250312,30.8333333 50.1666667,32.4749688 50.1666667,34.5 C50.1666667,36.5250312 48.5250312,38.1666667 46.5,38.1666667 Z" id="Shape" fill="url(#linearGradient-1)"></path>
                <path d="M49.5555556,41 L49.3457778,41 L49.1582222,41.0928571 C47.1692222,42.1272857 44.8307778,42.1272857 42.8417778,41.0928571 L42.6542222,41 L42.4444444,41 C39.9911111,41.0030179 38.0028889,43.08 38,45.6428571 L38,51.2142857 C38,52.7528125 39.1938889,54 40.6666667,54 L51.3333333,54 C52.8061111,54 54,52.7528125 54,51.2142857 L54,45.6428571 C53.9971111,43.08 52.0088889,41.0030179 49.5555556,41 Z M52.2222222,51.2142857 C52.2222222,51.7270893 51.8242222,52.1428571 51.3333333,52.1428571 L40.6666667,52.1428571 C40.1757778,52.1428571 39.7777778,51.7270893 39.7777778,51.2142857 L39.7777778,45.6428571 C39.778,44.1812857 40.8594444,42.9683393 42.2551111,42.8645714 C44.6301111,44.016 47.3698889,44.016 49.7448889,42.8645714 C51.1405556,42.9683393 52.222,44.1812857 52.2222222,45.6428571 L52.2222222,51.2142857 Z" id="Shape" fill="url(#linearGradient-2)"></path>
                <path d="M7.5,29 C4.46239583,29 2,31.4623958 2,34.5 C2,37.5376042 4.46239583,40 7.5,40 C10.5376042,40 13,37.5376042 13,34.5 C12.9970208,31.4636562 10.5363438,29.0029792 7.5,29 Z M7.5,38.1666667 C5.47496875,38.1666667 3.83333333,36.5250312 3.83333333,34.5 C3.83333333,32.4749688 5.47496875,30.8333333 7.5,30.8333333 C9.52503125,30.8333333 11.1666667,32.4749688 11.1666667,34.5 C11.1666667,36.5250312 9.52503125,38.1666667 7.5,38.1666667 Z" id="Shape" fill="url(#linearGradient-1)"></path>
                <path d="M11.5555556,41 L11.3457778,41 L11.1582222,41.0928571 C9.16922222,42.1272857 6.83077778,42.1272857 4.84177778,41.0928571 L4.65422222,41 L4.44444444,41 C1.99111111,41.0030179 0.00288888889,43.08 0,45.6428571 L0,51.2142857 C0,52.7528125 1.19388889,54 2.66666667,54 L13.3333333,54 C14.8061111,54 16,52.7528125 16,51.2142857 L16,45.6428571 C15.9971111,43.08 14.0088889,41.0030179 11.5555556,41 Z M14.2222222,51.2142857 C14.2222222,51.7270893 13.8242222,52.1428571 13.3333333,52.1428571 L2.66666667,52.1428571 C2.17577778,52.1428571 1.77777778,51.7270893 1.77777778,51.2142857 L1.77777778,45.6428571 C1.778,44.1812857 2.85944444,42.9683393 4.25511111,42.8645714 C6.63011111,44.016 9.36988889,44.016 11.7448889,42.8645714 C13.1405556,42.9683393 14.222,44.1812857 14.2222222,45.6428571 L14.2222222,51.2142857 Z" id="Shape" fill="url(#linearGradient-2)"></path>
                <path d="M35.928691,45.5293231 C35.928241,45.5283592 35.927791,45.5273954 35.9273411,45.5263245 C35.7325012,45.0909976 35.2038911,44.8884877 34.7467148,45.0739701 C34.7467148,45.0739701 34.7467148,45.0739701 34.7467148,45.0739701 C30.6828631,46.695335 26.1695971,46.9911217 21.9106805,45.9152807 L22.7530368,45.6796795 C23.2302371,45.5466719 23.5038229,45.0707573 23.3641051,44.6164753 C23.2243874,44.1621933 22.7244633,43.9017468 22.2472631,44.0347544 L18.6474497,45.0397008 C18.6339504,45.0397008 18.624051,45.0542653 18.6114516,45.0585489 C18.5280934,45.0881062 18.4497975,45.1294435 18.3792637,45.1810616 C18.3479903,45.1971253 18.3179543,45.2151167 18.2892683,45.2350357 C18.1943233,45.3156756 18.1190647,45.4150564 18.0687798,45.5263245 C18.0199573,45.6383422 17.996671,45.7589272 18.0003833,45.8801547 C18.0223197,45.9961348 18.0523556,46.1106156 18.0903786,46.2228475 C18.0957784,46.2348417 18.0903786,46.2485494 18.1002781,46.2605437 L19.9001848,49.5392563 C20.1303478,49.9589478 20.6742571,50.1216197 21.1151218,49.9025106 C21.5559864,49.6834014 21.726865,49.1656141 21.496702,48.7459226 L20.76414,47.4128479 C25.602964,48.7975407 30.7980571,48.5284199 35.4504783,46.6520701 C35.9081046,46.4677657 36.1222935,45.9650783 35.928691,45.5293231 Z" id="Path" fill="url(#linearGradient-3)"></path>
                <path d="M51.7371158,23.7336832 C51.3877417,23.3799163 50.8214068,23.3799163 50.4720327,23.7336832 L49.206055,25.0159894 C48.4652567,17.0786047 43.4900312,10.1906266 36.2456635,7.07276479 C35.7910523,6.87656741 35.2655373,7.09077598 35.0718382,7.55125078 C34.8781392,8.01172558 35.0896201,8.54401859 35.5442313,8.74021597 C42.0429917,11.5378411 46.5604746,17.6516777 47.3782157,24.7559033 L46.3690122,23.7336832 C46.013599,23.38592 45.4472641,23.3958884 45.1039291,23.7558857 C44.7690937,24.1070473 44.7690937,24.6638084 45.1039291,25.0150832 L47.7879809,27.7337536 C48.1369077,28.088087 48.7034663,28.0888799 49.0532877,27.7353395 C49.0538469,27.7347731 49.054406,27.7342067 49.0548534,27.7337536 L51.7389052,25.0150832 C52.0877201,24.6607498 52.0869372,24.0871104 51.7371158,23.7336832 Z" id="Path" fill="url(#linearGradient-4)"></path>
                <path d="M19.974625,7.43245061 C19.9717813,7.37870948 19.9642344,7.32542865 19.951875,7.27318352 C19.951875,7.26489795 19.94225,7.25937424 19.93875,7.25016805 C19.93525,7.24096186 19.93875,7.23451752 19.93875,7.22715257 C19.9149063,7.18238747 19.8873438,7.13980884 19.8565,7.10010715 C19.8281719,7.04613586 19.7947032,6.99527166 19.7567501,6.94820501 C19.7050157,6.89998759 19.6477032,6.85890496 19.5861251,6.82576268 C19.5553908,6.79825919 19.5225783,6.7732874 19.4881252,6.75119254 L15.9881262,5.0692216 C15.5411107,4.87612176 15.0298921,5.10086788 14.8463609,5.57118912 C14.6727829,6.01596318 14.8537984,6.52644642 15.2618764,6.74290697 L17.0740009,7.61473318 C10.2519561,11.4561311 5.99508239,18.938347 6,27.079381 C6,27.5877928 6.39178539,28 6.875004,28 C7.3582226,28 7.75000373,27.5877928 7.75000373,27.079381 C7.74562873,19.910866 11.3485495,13.2756195 17.2201258,9.63917439 L16.587501,11.0302297 C16.378923,11.4878924 16.5616885,12.0368115 16.9961259,12.2574149 C17.1141415,12.3180606 17.2436415,12.3495918 17.3750008,12.3494768 C17.7110007,12.3490165 18.0170319,12.146135 18.1625006,11.8274858 L19.9125,7.98574264 C19.9125,7.97653645 19.9125,7.96640964 19.9195,7.95720345 C19.94225,7.89425612 19.9581094,7.8287771 19.96675,7.76203222 C19.9817344,7.71243387 19.9928906,7.66168475 20,7.61013008 C19.9970469,7.55017477 19.988625,7.49067976 19.974625,7.43245061 Z" id="Path" fill="url(#linearGradient-5)"></path>
            </g>
        </g>
    </g>
</svg>
