<?xml version="1.0" encoding="UTF-8"?>
<svg width="220px" height="50px" viewBox="0 0 220 50" version="1.1" xmlns="http://www.w3.org/2000/svg" xmlns:xlink="http://www.w3.org/1999/xlink">
    <!-- Generator: sketchtool 51.3 (57544) - http://www.bohemiancoding.com/sketch -->
    <title>Preamium Logo</title>
    <desc>Created with sketchtool.</desc>
    <defs>
        <polygon id="path-1" points="0.284131503 0.337601103 42.9307503 0.337601103 42.9307503 12.4120734 0.284131503 12.4120734"></polygon>
        <polygon id="path-3" points="0 49.5183319 219.797211 49.5183319 219.797211 0 0 0"></polygon>
    </defs>
    <g id="Symbols" stroke="none" stroke-width="1" fill="none" fill-rule="evenodd">
        <g id="DT/Nav" transform="translate(-40.000000, -63.000000)">
            <g id="Logo" transform="translate(40.000000, 63.000000)">
                <g id="Group-20">
                    <path d="M21.4167755,1.42476001 C21.4167755,1.42476001 22.8220816,-0.942295405 20.3942245,0.425588097 L2.46235374,10.5271905 C2.46235374,10.5271905 0.0344965986,11.895074 0.0300068027,14.6308411 L7.4829932e-05,34.7687 C7.4829932e-05,34.7687 -0.00366666667,37.504467 1.40163946,35.1374116 L21.4167755,1.42476001 Z" id="Fill-1" fill="white"></path>
                    <path d="M44.1321122,35.0709705 C44.1321122,35.0709705 45.534051,37.4402163 45.5381667,34.7040842 L45.5680986,14.5662253 C45.5680986,14.5662253 45.5722143,11.8300932 43.1421122,10.4662254 L25.2525204,0.422302545 C25.2525204,0.422302545 22.8220442,-0.942295408 24.2243571,1.42695037 L44.1321122,35.0709705 Z" id="Fill-3" fill="white"></path>
                    <g id="Group-7" transform="translate(1.122449, 37.106259)">
                        <mask id="mask-2" fill="white">
                            <use xlink:href="#path-1"></use>
                        </mask>
                        <g id="Clip-6"></g>
                        <path d="M19.1645816,11.8063642 C19.1645816,11.8063642 21.5950578,13.1713272 24.0232891,11.8034437 L41.9547857,1.70184129 C41.9547857,1.70184129 44.383017,0.333957787 41.5791395,0.337608397 L1.64876531,0.394192849 C1.64876531,0.394192849 -1.15511224,0.39820852 1.27536395,1.76244141 L19.1645816,11.8063642 Z" id="Fill-5" fill="white" mask="url(#mask-2)"></path>
                    </g>
                    <path d="M84.3740408,15.998323 L90.1729864,15.998323 L90.1729864,18.8092926 L90.2511837,18.8092926 C91.4828844,16.6824473 93.104449,15.5646305 95.6527823,15.5646305 C96.3116599,15.5646305 97.0457415,15.6015017 97.5833946,15.7457008 L97.5833946,20.6871662 C96.7756054,20.4706851 95.9663197,20.3272161 95.1147551,20.3272161 C90.7083946,20.3272161 90.1729864,22.7015727 90.1729864,26.2032377 L90.1729864,33.5186947 L84.3740408,33.5186947 L84.3740408,15.998323 Z" id="Fill-8" fill="white"></path>
                    <path d="M114.023007,22.7765563 C114.174912,21.0823083 115.568993,19.4577869 118.113211,19.4577869 C120.202088,19.4577869 121.705422,20.9742502 121.669878,22.7765563 L114.023007,22.7765563 Z M101.082667,21.3342003 C102.318857,20.0349483 103.904878,19.2445913 105.798075,19.2445913 C107.878721,19.2445913 109.156442,20.6862171 109.156442,22.7765563 L108.458279,22.7765563 C104.252463,22.7765563 96.7967823,22.9222156 96.7967823,28.5467102 C96.7967823,32.0764848 99.9632109,33.9499778 103.479844,33.9499778 C106.756272,33.9499778 109.542939,33.1928413 111.162633,31.1032322 C112.782327,33.2702342 115.60566,33.9499778 118.655354,33.9499778 C121.669878,33.9499778 124.719946,32.6897873 126.572361,30.4928503 L122.518075,27.7176567 C121.557633,28.9413411 120.278041,29.8434068 118.384844,29.8434068 C116.145932,29.8434068 114.485456,28.5091089 114.023007,26.4534505 L127.464333,26.4534505 L127.464333,24.7602977 C127.464333,19.1704839 124.063687,15.5647766 118.655354,15.5647766 C116.222633,15.5647766 113.906272,16.2850419 112.357293,17.692352 C110.739469,16.2153152 108.458279,15.5647766 106.256034,15.5647766 C103.204844,15.5647766 100.118109,16.5044435 97.9944354,18.3779365 L101.082667,21.3342003 Z M102.360014,28.5091089 C102.360014,26.4534505 106.682939,26.4534505 108.458279,26.4534505 L109.156442,26.4534505 C109.156442,28.7624612 108.074776,30.2752739 105.332633,30.2752739 C104.056408,30.2752739 102.360014,30.0974892 102.360014,28.5091089 Z" id="Fill-10" fill="white"></path>
                    <path d="M129.097534,15.998323 L134.65216,15.998323 L134.65216,18.3781555 L134.731854,18.3781555 C135.504847,17.0080817 137.394303,15.5646305 140.210527,15.5646305 C142.840425,15.5646305 145.002636,16.5758495 146.006854,18.7019646 C147.362398,16.4696167 149.175901,15.5646305 151.958452,15.5646305 C157.051752,15.5646305 158.597364,18.9188108 158.597364,23.1721364 L158.597364,33.5186947 L152.805153,33.5186947 L152.805153,23.3156053 C152.805153,21.6947346 152.149643,20.3272161 150.257194,20.3272161 C147.591003,20.3272161 146.744303,22.0933812 146.744303,24.2530819 L146.744303,33.5186947 L140.94835,33.5186947 L140.94835,24.2530819 C140.94835,22.9541949 141.02318,20.3272161 138.357364,20.3272161 C135.345833,20.3272161 134.884881,22.5248832 134.884881,24.7941023 L134.884881,33.5186947 L129.097534,33.5186947 L129.097534,15.998323 Z" id="Fill-12" fill="white"></path>
                    <mask id="mask-4" fill="white">
                        <use xlink:href="#path-3"></use>
                    </mask>
                    <g id="Clip-15"></g>
                    <polygon id="Fill-14" fill="white" mask="url(#mask-4)" points="161.230068 33.5188042 167.023776 33.5188042 167.023776 15.9984325 161.230068 15.9984325"></polygon>
                    <path d="M187.733446,33.5190963 L182.169466,33.5190963 L182.169466,31.1388987 L182.09501,31.1388987 C181.326507,32.5060521 179.429194,33.9495032 176.60848,33.9495032 C170.739942,33.9495032 169.657901,30.3470814 169.657901,25.6615237 L169.657901,15.9983595 L175.451235,15.9983595 L175.451235,24.5791179 C175.451235,26.6000955 175.489772,29.1942188 178.463514,29.1942188 C181.475793,29.1942188 181.937493,26.9958216 181.937493,24.7225869 L181.937493,15.9983595 L187.733446,15.9983595 L187.733446,33.5190963 Z" id="Fill-16" fill="white" mask="url(#mask-4)"></path>
                    <path d="M62.7509966,46.1490016 L68.5390918,46.1490016 L68.5390918,31.5943853 L68.6187857,31.5943853 C69.932051,33.287173 72.172085,33.8990153 74.5658946,33.8990153 C79.9005204,33.8990153 83.1440238,29.4306688 83.1440238,24.5651361 C83.1440238,19.2655458 79.4724932,15.5141791 73.9126293,15.5141791 C71.2804864,15.5141791 69.0434456,16.991946 68.1574592,18.2557871 L68.0788878,18.2557871 L68.0788878,15.9475065 L62.7509966,15.9475065 L62.7509966,46.1490016 Z M68.0788878,24.7089701 C68.0788878,22.0798009 69.8149422,20.2756695 72.7149762,20.2756695 C75.6127653,20.2756695 77.3484456,22.0798009 77.3484456,24.7089701 C77.3484456,27.3421549 75.6127653,29.1426357 72.7149762,29.1426357 C69.8149422,29.1426357 68.0788878,27.3421549 68.0788878,24.7089701 Z" id="Fill-17" fill="white" mask="url(#mask-4)"></path>
                    <path d="M190.286718,15.998323 L195.851071,15.998323 L195.851071,18.3781555 L195.92665,18.3781555 C196.69852,17.0080817 198.590595,15.5646305 201.412806,15.5646305 C204.039711,15.5646305 206.199303,16.5758495 207.206888,18.7019646 C208.55869,16.4696167 210.369575,15.5646305 213.153997,15.5646305 C218.251786,15.5646305 219.797024,18.9188108 219.797024,23.1721364 L219.797024,33.5186947 L214.00369,33.5186947 L214.00369,23.3156053 C214.00369,21.6947346 213.344813,20.3272161 211.45199,20.3272161 C208.788418,20.3272161 207.938724,22.0933812 207.938724,24.2530819 L207.938724,33.5186947 L202.145391,33.5186947 L202.145391,24.2530819 C202.145391,22.9541949 202.224337,20.3272161 199.554405,20.3272161 C196.549235,20.3272161 196.081548,22.5248832 196.081548,24.7941023 L196.081548,33.5186947 L190.286718,33.5186947 L190.286718,15.998323 Z" id="Fill-18" fill="white" mask="url(#mask-4)"></path>
                    <path d="M160.770163,11.1366599 C160.770163,9.32741762 162.273497,7.8606026 164.128531,7.8606026 C165.982442,7.8606026 167.485401,9.32741762 167.485401,11.1366599 C167.485401,12.9459021 165.982442,14.4130822 164.128531,14.4130822 C162.273497,14.4130822 160.770163,12.9459021 160.770163,11.1366599" id="Fill-19" fill="white" mask="url(#mask-4)"></path>
                </g>
            </g>
        </g>
    </g>
</svg>
